0.06m3min_grf.mot
version=1
nRows=10
nColumns 19
inDegrees=yes
endheader
time	1_ground_force_vx	1_ground_force_vy	1_ground_force_vz	1_ground_force_px	1_ground_force_py	1_ground_force_pz	1_ground_torque_x	1_ground_torque_y	1_ground_torque_z	2_ground_force_vx	2_ground_force_vy	2_ground_force_vz	2_ground_force_px	2_ground_force_py	2_ground_force_pz	2_ground_torque_x	2_ground_torque_y	2_ground_torque_z
            1.253500	            1.658852	          990.844855	         -104.161955	           -0.246061	            0.006029	           -0.360565	           -0.002483	           -1.483072	            0.155907	           31.381966	          934.717029	           95.675631	           -0.273973	            0.005400	           -0.671237	            0.069738	            2.077149	            0.212613
            1.254000	            1.336924	          992.107998	         -104.476743	           -0.246081	            0.006028	           -0.360368	           -0.002049	           -1.520188	            0.160088	           31.562740	          936.558945	           95.729057	           -0.273946	            0.005401	           -0.671445	            0.061914	            1.837169	            0.187784
            1.254500	            1.657729	          991.387391	         -104.572336	           -0.246034	            0.006029	           -0.360733	           -0.002166	           -1.295461	            0.136646	           31.277731	          937.662226	           95.920832	           -0.273908	            0.005401	           -0.671380	            0.058485	            1.753297	            0.179359
            1.255000	            2.024033	          991.928818	         -104.708499	           -0.245979	            0.006029	           -0.360586	           -0.002064	           -1.011490	            0.106773	           31.038294	          939.133502	           96.207756	           -0.273789	            0.005402	           -0.671453	            0.059887	            1.812027	            0.185630
            1.255500	            2.390663	          991.929085	         -104.755261	           -0.246098	            0.006028	           -0.360493	           -0.002067	           -0.857746	            0.090584	           30.380480	          939.682947	           96.397719	           -0.273953	            0.005401	           -0.671440	            0.067068	            2.074447	            0.212808
            1.256000	            2.346821	          991.565264	         -103.977146	           -0.245920	            0.006029	           -0.360688	           -0.002547	           -1.076301	            0.112863	           29.722694	          940.232226	           96.634602	           -0.273821	            0.005401	           -0.671432	            0.069310	            2.192530	            0.225343
            1.256500	            2.530630	          992.285379	         -103.745234	           -0.245964	            0.006028	           -0.360413	           -0.003306	           -1.296243	            0.135525	           29.159790	          940.414610	           96.541642	           -0.273890	            0.005401	           -0.671246	            0.067321	            2.171137	            0.222886
            1.257000	            2.211066	          991.201696	         -103.290509	           -0.246010	            0.006029	           -0.360660	           -0.003256	           -1.459843	            0.152126	           28.922756	          941.151453	           96.262802	           -0.273775	            0.005401	           -0.671302	            0.060214	            1.959379	            0.200409
            1.257500	            1.936724	          991.020167	         -103.015471	           -0.245959	            0.006029	           -0.360629	           -0.002728	           -1.396136	            0.145127	           29.061954	          941.520409	           96.217135	           -0.273697	            0.005402	           -0.671333	            0.054255	            1.757703	            0.179626
            1.258000	            1.891842	          990.117545	         -102.698227	           -0.245851	            0.006029	           -0.360635	           -0.002194	           -1.148486	            0.119125	           28.826250	          941.888849	           95.936980	           -0.273667	            0.005402	           -0.671381	            0.049952	            1.632161	            0.166245
